<?xml version="1.0" encoding="utf-8"?>
<svg viewBox="0 0 500 500" xmlns="http://www.w3.org/2000/svg">
  <g transform="matrix(1, 0, 0, 1, -23.579203, 94.921394)">
    <g transform="matrix(1, 0, 0, 1, 74.740021, 242.206772)">
      <path d="M12,0h-2H0v48v2v10h48h2h10V12v-2V0H12z M48,39.045L39.045,48H30.56L48,30.56V39.045z M48,41.873V48h-6.127L48,41.873z    M27.731,48h-8.485L48,19.246v8.485L27.731,48z M48,16.418L16.418,48H12v-4.067L43.932,12H48V16.418z M12,41.104v-8.485L32.619,12   h8.485L12,41.104z M12,29.791v-8.486L21.305,12h8.486L12,29.791z M12,18.477V12h6.477L12,18.477z M2,2h8v10v8.477v14.143v8.485V48   H2V2z M48,58H2v-8h8h2h5.246h8.485h14.142H48V58z M58,58h-8V48v-8.127V25.731v-8.485V12h8V58z M50,10h-2h-4.896h-8.485H20.477H12V2   h46v8H50z"/>
      <circle cx="55" cy="4" r="1"/>
      <circle cx="51" cy="4" r="1"/>
      <circle cx="55" cy="8" r="1"/>
      <circle cx="51" cy="8" r="1"/>
      <circle cx="56" cy="55" r="1"/>
      <circle cx="56" cy="51" r="1"/>
      <circle cx="52" cy="55" r="1"/>
      <circle cx="52" cy="51" r="1"/>
      <circle cx="5" cy="56" r="1"/>
      <circle cx="9" cy="56" r="1"/>
      <circle cx="5" cy="52" r="1"/>
      <circle cx="9" cy="52" r="1"/>
      <circle cx="4" cy="5" r="1"/>
      <circle cx="4" cy="9" r="1"/>
      <circle cx="8" cy="5" r="1"/>
      <circle cx="8" cy="9" r="1"/>
    </g>
    <g>
      <path fill="#000000" d="M 257.626 -69.539 L 257.626 19.461 L 266.626 19.461 C 281.526 19.461 289.626 31.161 290.426 43.061 C 290.826 49.061 289.226 54.561 285.726 58.461 C 282.226 62.461 276.626 65.461 266.626 65.461 C 261.626 65.461 255.526 62.661 251.026 58.061 C 246.426 53.561 243.626 47.461 243.626 42.461 L 225.626 42.461 C 225.626 53.461 230.826 63.361 238.226 70.861 C 245.726 78.261 255.626 83.461 266.626 83.461 C 280.626 83.461 292.026 78.461 299.126 70.461 C 306.326 62.361 309.126 51.861 308.426 41.861 C 307.226 24.361 295.026 6.681 275.626 2.441 L 275.626 -69.539 L 257.626 -69.539 Z M 209.726 70.961 L 71.966 161.461 L 104.666 161.461 L 219.526 85.961 L 209.726 70.961 Z M 323.526 70.961 L 313.726 85.961 L 428.626 161.461 L 461.226 161.461 L 323.526 70.961 Z"/>
      <rect x="64.088" y="178.962" width="400" height="200" style="fill-opacity: 0.95; fill: none; stroke: rgb(0, 0, 0); stroke-width: 19px;"/>
    </g>
    <rect x="89.135" y="177.207" width="10" height="200" style=""/>
    <rect x="119.135" y="177.207" width="10" height="200" style=""/>
    <rect x="149.135" y="177.207" width="10" height="200" style=""/>
    <rect x="179.135" y="177.207" width="10" height="200" style=""/>
    <rect x="209.135" y="177.207" width="10" height="200" style=""/>
    <rect x="239.135" y="177.207" width="10" height="200" style=""/>
    <rect x="269.135" y="177.207" width="10" height="200" style=""/>
    <rect x="299.135" y="177.207" width="10" height="200" style=""/>
    <rect x="329.135" y="177.207" width="10" height="200" style=""/>
    <rect x="359.135" y="177.207" width="10" height="200" style=""/>
    <rect x="389.135" y="177.207" width="10" height="200" style=""/>
    <rect x="419.135" y="177.207" width="10" height="200" style=""/>
    <g transform="matrix(1, 0, 0, 1, 74.135429, 305.386932)">
      <path d="M12,0h-2H0v48v2v10h48h2h10V12v-2V0H12z M48,39.045L39.045,48H30.56L48,30.56V39.045z M48,41.873V48h-6.127L48,41.873z    M27.731,48h-8.485L48,19.246v8.485L27.731,48z M48,16.418L16.418,48H12v-4.067L43.932,12H48V16.418z M12,41.104v-8.485L32.619,12   h8.485L12,41.104z M12,29.791v-8.486L21.305,12h8.486L12,29.791z M12,18.477V12h6.477L12,18.477z M2,2h8v10v8.477v14.143v8.485V48   H2V2z M48,58H2v-8h8h2h5.246h8.485h14.142H48V58z M58,58h-8V48v-8.127V25.731v-8.485V12h8V58z M50,10h-2h-4.896h-8.485H20.477H12V2   h46v8H50z"/>
      <circle cx="55" cy="4" r="1"/>
      <circle cx="51" cy="4" r="1"/>
      <circle cx="55" cy="8" r="1"/>
      <circle cx="51" cy="8" r="1"/>
      <circle cx="56" cy="55" r="1"/>
      <circle cx="56" cy="51" r="1"/>
      <circle cx="52" cy="55" r="1"/>
      <circle cx="52" cy="51" r="1"/>
      <circle cx="5" cy="56" r="1"/>
      <circle cx="9" cy="56" r="1"/>
      <circle cx="5" cy="52" r="1"/>
      <circle cx="9" cy="52" r="1"/>
      <circle cx="4" cy="5" r="1"/>
      <circle cx="4" cy="9" r="1"/>
      <circle cx="8" cy="5" r="1"/>
      <circle cx="8" cy="9" r="1"/>
    </g>
    <g transform="matrix(1, 0, 0, 1, 139.740021, 242.206772)">
      <path d="M12,0h-2H0v48v2v10h48h2h10V12v-2V0H12z M48,39.045L39.045,48H30.56L48,30.56V39.045z M48,41.873V48h-6.127L48,41.873z    M27.731,48h-8.485L48,19.246v8.485L27.731,48z M48,16.418L16.418,48H12v-4.067L43.932,12H48V16.418z M12,41.104v-8.485L32.619,12   h8.485L12,41.104z M12,29.791v-8.486L21.305,12h8.486L12,29.791z M12,18.477V12h6.477L12,18.477z M2,2h8v10v8.477v14.143v8.485V48   H2V2z M48,58H2v-8h8h2h5.246h8.485h14.142H48V58z M58,58h-8V48v-8.127V25.731v-8.485V12h8V58z M50,10h-2h-4.896h-8.485H20.477H12V2   h46v8H50z"/>
      <circle cx="55" cy="4" r="1"/>
      <circle cx="51" cy="4" r="1"/>
      <circle cx="55" cy="8" r="1"/>
      <circle cx="51" cy="8" r="1"/>
      <circle cx="56" cy="55" r="1"/>
      <circle cx="56" cy="51" r="1"/>
      <circle cx="52" cy="55" r="1"/>
      <circle cx="52" cy="51" r="1"/>
      <circle cx="5" cy="56" r="1"/>
      <circle cx="9" cy="56" r="1"/>
      <circle cx="5" cy="52" r="1"/>
      <circle cx="9" cy="52" r="1"/>
      <circle cx="4" cy="5" r="1"/>
      <circle cx="4" cy="9" r="1"/>
      <circle cx="8" cy="5" r="1"/>
      <circle cx="8" cy="9" r="1"/>
    </g>
    <g transform="matrix(1, 0, 0, 1, 139.135422, 305.386932)">
      <path d="M12,0h-2H0v48v2v10h48h2h10V12v-2V0H12z M48,39.045L39.045,48H30.56L48,30.56V39.045z M48,41.873V48h-6.127L48,41.873z    M27.731,48h-8.485L48,19.246v8.485L27.731,48z M48,16.418L16.418,48H12v-4.067L43.932,12H48V16.418z M12,41.104v-8.485L32.619,12   h8.485L12,41.104z M12,29.791v-8.486L21.305,12h8.486L12,29.791z M12,18.477V12h6.477L12,18.477z M2,2h8v10v8.477v14.143v8.485V48   H2V2z M48,58H2v-8h8h2h5.246h8.485h14.142H48V58z M58,58h-8V48v-8.127V25.731v-8.485V12h8V58z M50,10h-2h-4.896h-8.485H20.477H12V2   h46v8H50z"/>
      <circle cx="55" cy="4" r="1"/>
      <circle cx="51" cy="4" r="1"/>
      <circle cx="55" cy="8" r="1"/>
      <circle cx="51" cy="8" r="1"/>
      <circle cx="56" cy="55" r="1"/>
      <circle cx="56" cy="51" r="1"/>
      <circle cx="52" cy="55" r="1"/>
      <circle cx="52" cy="51" r="1"/>
      <circle cx="5" cy="56" r="1"/>
      <circle cx="9" cy="56" r="1"/>
      <circle cx="5" cy="52" r="1"/>
      <circle cx="9" cy="52" r="1"/>
      <circle cx="4" cy="5" r="1"/>
      <circle cx="4" cy="9" r="1"/>
      <circle cx="8" cy="5" r="1"/>
      <circle cx="8" cy="9" r="1"/>
    </g>
    <g transform="matrix(1, 0, 0, 1, 204.740005, 242.206772)">
      <path d="M12,0h-2H0v48v2v10h48h2h10V12v-2V0H12z M48,39.045L39.045,48H30.56L48,30.56V39.045z M48,41.873V48h-6.127L48,41.873z    M27.731,48h-8.485L48,19.246v8.485L27.731,48z M48,16.418L16.418,48H12v-4.067L43.932,12H48V16.418z M12,41.104v-8.485L32.619,12   h8.485L12,41.104z M12,29.791v-8.486L21.305,12h8.486L12,29.791z M12,18.477V12h6.477L12,18.477z M2,2h8v10v8.477v14.143v8.485V48   H2V2z M48,58H2v-8h8h2h5.246h8.485h14.142H48V58z M58,58h-8V48v-8.127V25.731v-8.485V12h8V58z M50,10h-2h-4.896h-8.485H20.477H12V2   h46v8H50z"/>
      <circle cx="55" cy="4" r="1"/>
      <circle cx="51" cy="4" r="1"/>
      <circle cx="55" cy="8" r="1"/>
      <circle cx="51" cy="8" r="1"/>
      <circle cx="56" cy="55" r="1"/>
      <circle cx="56" cy="51" r="1"/>
      <circle cx="52" cy="55" r="1"/>
      <circle cx="52" cy="51" r="1"/>
      <circle cx="5" cy="56" r="1"/>
      <circle cx="9" cy="56" r="1"/>
      <circle cx="5" cy="52" r="1"/>
      <circle cx="9" cy="52" r="1"/>
      <circle cx="4" cy="5" r="1"/>
      <circle cx="4" cy="9" r="1"/>
      <circle cx="8" cy="5" r="1"/>
      <circle cx="8" cy="9" r="1"/>
    </g>
    <g transform="matrix(1, 0, 0, 1, 204.135422, 305.386932)">
      <path d="M12,0h-2H0v48v2v10h48h2h10V12v-2V0H12z M48,39.045L39.045,48H30.56L48,30.56V39.045z M48,41.873V48h-6.127L48,41.873z    M27.731,48h-8.485L48,19.246v8.485L27.731,48z M48,16.418L16.418,48H12v-4.067L43.932,12H48V16.418z M12,41.104v-8.485L32.619,12   h8.485L12,41.104z M12,29.791v-8.486L21.305,12h8.486L12,29.791z M12,18.477V12h6.477L12,18.477z M2,2h8v10v8.477v14.143v8.485V48   H2V2z M48,58H2v-8h8h2h5.246h8.485h14.142H48V58z M58,58h-8V48v-8.127V25.731v-8.485V12h8V58z M50,10h-2h-4.896h-8.485H20.477H12V2   h46v8H50z"/>
      <circle cx="55" cy="4" r="1"/>
      <circle cx="51" cy="4" r="1"/>
      <circle cx="55" cy="8" r="1"/>
      <circle cx="51" cy="8" r="1"/>
      <circle cx="56" cy="55" r="1"/>
      <circle cx="56" cy="51" r="1"/>
      <circle cx="52" cy="55" r="1"/>
      <circle cx="52" cy="51" r="1"/>
      <circle cx="5" cy="56" r="1"/>
      <circle cx="9" cy="56" r="1"/>
      <circle cx="5" cy="52" r="1"/>
      <circle cx="9" cy="52" r="1"/>
      <circle cx="4" cy="5" r="1"/>
      <circle cx="4" cy="9" r="1"/>
      <circle cx="8" cy="5" r="1"/>
      <circle cx="8" cy="9" r="1"/>
    </g>
    <g transform="matrix(1, 0, 0, 1, 269.740021, 242.206772)">
      <path d="M12,0h-2H0v48v2v10h48h2h10V12v-2V0H12z M48,39.045L39.045,48H30.56L48,30.56V39.045z M48,41.873V48h-6.127L48,41.873z    M27.731,48h-8.485L48,19.246v8.485L27.731,48z M48,16.418L16.418,48H12v-4.067L43.932,12H48V16.418z M12,41.104v-8.485L32.619,12   h8.485L12,41.104z M12,29.791v-8.486L21.305,12h8.486L12,29.791z M12,18.477V12h6.477L12,18.477z M2,2h8v10v8.477v14.143v8.485V48   H2V2z M48,58H2v-8h8h2h5.246h8.485h14.142H48V58z M58,58h-8V48v-8.127V25.731v-8.485V12h8V58z M50,10h-2h-4.896h-8.485H20.477H12V2   h46v8H50z"/>
      <circle cx="55" cy="4" r="1"/>
      <circle cx="51" cy="4" r="1"/>
      <circle cx="55" cy="8" r="1"/>
      <circle cx="51" cy="8" r="1"/>
      <circle cx="56" cy="55" r="1"/>
      <circle cx="56" cy="51" r="1"/>
      <circle cx="52" cy="55" r="1"/>
      <circle cx="52" cy="51" r="1"/>
      <circle cx="5" cy="56" r="1"/>
      <circle cx="9" cy="56" r="1"/>
      <circle cx="5" cy="52" r="1"/>
      <circle cx="9" cy="52" r="1"/>
      <circle cx="4" cy="5" r="1"/>
      <circle cx="4" cy="9" r="1"/>
      <circle cx="8" cy="5" r="1"/>
      <circle cx="8" cy="9" r="1"/>
    </g>
    <g transform="matrix(1, 0, 0, 1, 269.135437, 305.386932)">
      <path d="M12,0h-2H0v48v2v10h48h2h10V12v-2V0H12z M48,39.045L39.045,48H30.56L48,30.56V39.045z M48,41.873V48h-6.127L48,41.873z    M27.731,48h-8.485L48,19.246v8.485L27.731,48z M48,16.418L16.418,48H12v-4.067L43.932,12H48V16.418z M12,41.104v-8.485L32.619,12   h8.485L12,41.104z M12,29.791v-8.486L21.305,12h8.486L12,29.791z M12,18.477V12h6.477L12,18.477z M2,2h8v10v8.477v14.143v8.485V48   H2V2z M48,58H2v-8h8h2h5.246h8.485h14.142H48V58z M58,58h-8V48v-8.127V25.731v-8.485V12h8V58z M50,10h-2h-4.896h-8.485H20.477H12V2   h46v8H50z"/>
      <circle cx="55" cy="4" r="1"/>
      <circle cx="51" cy="4" r="1"/>
      <circle cx="55" cy="8" r="1"/>
      <circle cx="51" cy="8" r="1"/>
      <circle cx="56" cy="55" r="1"/>
      <circle cx="56" cy="51" r="1"/>
      <circle cx="52" cy="55" r="1"/>
      <circle cx="52" cy="51" r="1"/>
      <circle cx="5" cy="56" r="1"/>
      <circle cx="9" cy="56" r="1"/>
      <circle cx="5" cy="52" r="1"/>
      <circle cx="9" cy="52" r="1"/>
      <circle cx="4" cy="5" r="1"/>
      <circle cx="4" cy="9" r="1"/>
      <circle cx="8" cy="5" r="1"/>
      <circle cx="8" cy="9" r="1"/>
    </g>
    <g transform="matrix(1, 0, 0, 1, 334.740021, 242.206772)">
      <path d="M12,0h-2H0v48v2v10h48h2h10V12v-2V0H12z M48,39.045L39.045,48H30.56L48,30.56V39.045z M48,41.873V48h-6.127L48,41.873z    M27.731,48h-8.485L48,19.246v8.485L27.731,48z M48,16.418L16.418,48H12v-4.067L43.932,12H48V16.418z M12,41.104v-8.485L32.619,12   h8.485L12,41.104z M12,29.791v-8.486L21.305,12h8.486L12,29.791z M12,18.477V12h6.477L12,18.477z M2,2h8v10v8.477v14.143v8.485V48   H2V2z M48,58H2v-8h8h2h5.246h8.485h14.142H48V58z M58,58h-8V48v-8.127V25.731v-8.485V12h8V58z M50,10h-2h-4.896h-8.485H20.477H12V2   h46v8H50z"/>
      <circle cx="55" cy="4" r="1"/>
      <circle cx="51" cy="4" r="1"/>
      <circle cx="55" cy="8" r="1"/>
      <circle cx="51" cy="8" r="1"/>
      <circle cx="56" cy="55" r="1"/>
      <circle cx="56" cy="51" r="1"/>
      <circle cx="52" cy="55" r="1"/>
      <circle cx="52" cy="51" r="1"/>
      <circle cx="5" cy="56" r="1"/>
      <circle cx="9" cy="56" r="1"/>
      <circle cx="5" cy="52" r="1"/>
      <circle cx="9" cy="52" r="1"/>
      <circle cx="4" cy="5" r="1"/>
      <circle cx="4" cy="9" r="1"/>
      <circle cx="8" cy="5" r="1"/>
      <circle cx="8" cy="9" r="1"/>
    </g>
    <g transform="matrix(1, 0, 0, 1, 334.135437, 305.386932)">
      <path d="M12,0h-2H0v48v2v10h48h2h10V12v-2V0H12z M48,39.045L39.045,48H30.56L48,30.56V39.045z M48,41.873V48h-6.127L48,41.873z    M27.731,48h-8.485L48,19.246v8.485L27.731,48z M48,16.418L16.418,48H12v-4.067L43.932,12H48V16.418z M12,41.104v-8.485L32.619,12   h8.485L12,41.104z M12,29.791v-8.486L21.305,12h8.486L12,29.791z M12,18.477V12h6.477L12,18.477z M2,2h8v10v8.477v14.143v8.485V48   H2V2z M48,58H2v-8h8h2h5.246h8.485h14.142H48V58z M58,58h-8V48v-8.127V25.731v-8.485V12h8V58z M50,10h-2h-4.896h-8.485H20.477H12V2   h46v8H50z"/>
      <circle cx="55" cy="4" r="1"/>
      <circle cx="51" cy="4" r="1"/>
      <circle cx="55" cy="8" r="1"/>
      <circle cx="51" cy="8" r="1"/>
      <circle cx="56" cy="55" r="1"/>
      <circle cx="56" cy="51" r="1"/>
      <circle cx="52" cy="55" r="1"/>
      <circle cx="52" cy="51" r="1"/>
      <circle cx="5" cy="56" r="1"/>
      <circle cx="9" cy="56" r="1"/>
      <circle cx="5" cy="52" r="1"/>
      <circle cx="9" cy="52" r="1"/>
      <circle cx="4" cy="5" r="1"/>
      <circle cx="4" cy="9" r="1"/>
      <circle cx="8" cy="5" r="1"/>
      <circle cx="8" cy="9" r="1"/>
    </g>
    <g transform="matrix(1, 0, 0, 1, 399.740021, 242.206772)">
      <path d="M12,0h-2H0v48v2v10h48h2h10V12v-2V0H12z M48,39.045L39.045,48H30.56L48,30.56V39.045z M48,41.873V48h-6.127L48,41.873z    M27.731,48h-8.485L48,19.246v8.485L27.731,48z M48,16.418L16.418,48H12v-4.067L43.932,12H48V16.418z M12,41.104v-8.485L32.619,12   h8.485L12,41.104z M12,29.791v-8.486L21.305,12h8.486L12,29.791z M12,18.477V12h6.477L12,18.477z M2,2h8v10v8.477v14.143v8.485V48   H2V2z M48,58H2v-8h8h2h5.246h8.485h14.142H48V58z M58,58h-8V48v-8.127V25.731v-8.485V12h8V58z M50,10h-2h-4.896h-8.485H20.477H12V2   h46v8H50z"/>
      <circle cx="55" cy="4" r="1"/>
      <circle cx="51" cy="4" r="1"/>
      <circle cx="55" cy="8" r="1"/>
      <circle cx="51" cy="8" r="1"/>
      <circle cx="56" cy="55" r="1"/>
      <circle cx="56" cy="51" r="1"/>
      <circle cx="52" cy="55" r="1"/>
      <circle cx="52" cy="51" r="1"/>
      <circle cx="5" cy="56" r="1"/>
      <circle cx="9" cy="56" r="1"/>
      <circle cx="5" cy="52" r="1"/>
      <circle cx="9" cy="52" r="1"/>
      <circle cx="4" cy="5" r="1"/>
      <circle cx="4" cy="9" r="1"/>
      <circle cx="8" cy="5" r="1"/>
      <circle cx="8" cy="9" r="1"/>
    </g>
    <g transform="matrix(1, 0, 0, 1, 399.135437, 305.386932)">
      <path d="M12,0h-2H0v48v2v10h48h2h10V12v-2V0H12z M48,39.045L39.045,48H30.56L48,30.56V39.045z M48,41.873V48h-6.127L48,41.873z    M27.731,48h-8.485L48,19.246v8.485L27.731,48z M48,16.418L16.418,48H12v-4.067L43.932,12H48V16.418z M12,41.104v-8.485L32.619,12   h8.485L12,41.104z M12,29.791v-8.486L21.305,12h8.486L12,29.791z M12,18.477V12h6.477L12,18.477z M2,2h8v10v8.477v14.143v8.485V48   H2V2z M48,58H2v-8h8h2h5.246h8.485h14.142H48V58z M58,58h-8V48v-8.127V25.731v-8.485V12h8V58z M50,10h-2h-4.896h-8.485H20.477H12V2   h46v8H50z"/>
      <circle cx="55" cy="4" r="1"/>
      <circle cx="51" cy="4" r="1"/>
      <circle cx="55" cy="8" r="1"/>
      <circle cx="51" cy="8" r="1"/>
      <circle cx="56" cy="55" r="1"/>
      <circle cx="56" cy="51" r="1"/>
      <circle cx="52" cy="55" r="1"/>
      <circle cx="52" cy="51" r="1"/>
      <circle cx="5" cy="56" r="1"/>
      <circle cx="9" cy="56" r="1"/>
      <circle cx="5" cy="52" r="1"/>
      <circle cx="9" cy="52" r="1"/>
      <circle cx="4" cy="5" r="1"/>
      <circle cx="4" cy="9" r="1"/>
      <circle cx="8" cy="5" r="1"/>
      <circle cx="8" cy="9" r="1"/>
    </g>
    <g transform="matrix(1, 0, 0, 1, 74.135429, 177.206772)">
      <path d="M12,0h-2H0v48v2v10h48h2h10V12v-2V0H12z M48,39.045L39.045,48H30.56L48,30.56V39.045z M48,41.873V48h-6.127L48,41.873z    M27.731,48h-8.485L48,19.246v8.485L27.731,48z M48,16.418L16.418,48H12v-4.067L43.932,12H48V16.418z M12,41.104v-8.485L32.619,12   h8.485L12,41.104z M12,29.791v-8.486L21.305,12h8.486L12,29.791z M12,18.477V12h6.477L12,18.477z M2,2h8v10v8.477v14.143v8.485V48   H2V2z M48,58H2v-8h8h2h5.246h8.485h14.142H48V58z M58,58h-8V48v-8.127V25.731v-8.485V12h8V58z M50,10h-2h-4.896h-8.485H20.477H12V2   h46v8H50z"/>
      <circle cx="55" cy="4" r="1"/>
      <circle cx="51" cy="4" r="1"/>
      <circle cx="55" cy="8" r="1"/>
      <circle cx="51" cy="8" r="1"/>
      <circle cx="56" cy="55" r="1"/>
      <circle cx="56" cy="51" r="1"/>
      <circle cx="52" cy="55" r="1"/>
      <circle cx="52" cy="51" r="1"/>
      <circle cx="5" cy="56" r="1"/>
      <circle cx="9" cy="56" r="1"/>
      <circle cx="5" cy="52" r="1"/>
      <circle cx="9" cy="52" r="1"/>
      <circle cx="4" cy="5" r="1"/>
      <circle cx="4" cy="9" r="1"/>
      <circle cx="8" cy="5" r="1"/>
      <circle cx="8" cy="9" r="1"/>
    </g>
    <g transform="matrix(1, 0, 0, 1, 139.135437, 177.206772)">
      <path d="M12,0h-2H0v48v2v10h48h2h10V12v-2V0H12z M48,39.045L39.045,48H30.56L48,30.56V39.045z M48,41.873V48h-6.127L48,41.873z    M27.731,48h-8.485L48,19.246v8.485L27.731,48z M48,16.418L16.418,48H12v-4.067L43.932,12H48V16.418z M12,41.104v-8.485L32.619,12   h8.485L12,41.104z M12,29.791v-8.486L21.305,12h8.486L12,29.791z M12,18.477V12h6.477L12,18.477z M2,2h8v10v8.477v14.143v8.485V48   H2V2z M48,58H2v-8h8h2h5.246h8.485h14.142H48V58z M58,58h-8V48v-8.127V25.731v-8.485V12h8V58z M50,10h-2h-4.896h-8.485H20.477H12V2   h46v8H50z"/>
      <circle cx="55" cy="4" r="1"/>
      <circle cx="51" cy="4" r="1"/>
      <circle cx="55" cy="8" r="1"/>
      <circle cx="51" cy="8" r="1"/>
      <circle cx="56" cy="55" r="1"/>
      <circle cx="56" cy="51" r="1"/>
      <circle cx="52" cy="55" r="1"/>
      <circle cx="52" cy="51" r="1"/>
      <circle cx="5" cy="56" r="1"/>
      <circle cx="9" cy="56" r="1"/>
      <circle cx="5" cy="52" r="1"/>
      <circle cx="9" cy="52" r="1"/>
      <circle cx="4" cy="5" r="1"/>
      <circle cx="4" cy="9" r="1"/>
      <circle cx="8" cy="5" r="1"/>
      <circle cx="8" cy="9" r="1"/>
    </g>
    <g transform="matrix(1, 0, 0, 1, 204.135452, 177.206772)">
      <path d="M12,0h-2H0v48v2v10h48h2h10V12v-2V0H12z M48,39.045L39.045,48H30.56L48,30.56V39.045z M48,41.873V48h-6.127L48,41.873z    M27.731,48h-8.485L48,19.246v8.485L27.731,48z M48,16.418L16.418,48H12v-4.067L43.932,12H48V16.418z M12,41.104v-8.485L32.619,12   h8.485L12,41.104z M12,29.791v-8.486L21.305,12h8.486L12,29.791z M12,18.477V12h6.477L12,18.477z M2,2h8v10v8.477v14.143v8.485V48   H2V2z M48,58H2v-8h8h2h5.246h8.485h14.142H48V58z M58,58h-8V48v-8.127V25.731v-8.485V12h8V58z M50,10h-2h-4.896h-8.485H20.477H12V2   h46v8H50z"/>
      <circle cx="55" cy="4" r="1"/>
      <circle cx="51" cy="4" r="1"/>
      <circle cx="55" cy="8" r="1"/>
      <circle cx="51" cy="8" r="1"/>
      <circle cx="56" cy="55" r="1"/>
      <circle cx="56" cy="51" r="1"/>
      <circle cx="52" cy="55" r="1"/>
      <circle cx="52" cy="51" r="1"/>
      <circle cx="5" cy="56" r="1"/>
      <circle cx="9" cy="56" r="1"/>
      <circle cx="5" cy="52" r="1"/>
      <circle cx="9" cy="52" r="1"/>
      <circle cx="4" cy="5" r="1"/>
      <circle cx="4" cy="9" r="1"/>
      <circle cx="8" cy="5" r="1"/>
      <circle cx="8" cy="9" r="1"/>
    </g>
    <g transform="matrix(1, 0, 0, 1, 269.135468, 177.206772)">
      <path d="M12,0h-2H0v48v2v10h48h2h10V12v-2V0H12z M48,39.045L39.045,48H30.56L48,30.56V39.045z M48,41.873V48h-6.127L48,41.873z    M27.731,48h-8.485L48,19.246v8.485L27.731,48z M48,16.418L16.418,48H12v-4.067L43.932,12H48V16.418z M12,41.104v-8.485L32.619,12   h8.485L12,41.104z M12,29.791v-8.486L21.305,12h8.486L12,29.791z M12,18.477V12h6.477L12,18.477z M2,2h8v10v8.477v14.143v8.485V48   H2V2z M48,58H2v-8h8h2h5.246h8.485h14.142H48V58z M58,58h-8V48v-8.127V25.731v-8.485V12h8V58z M50,10h-2h-4.896h-8.485H20.477H12V2   h46v8H50z"/>
      <circle cx="55" cy="4" r="1"/>
      <circle cx="51" cy="4" r="1"/>
      <circle cx="55" cy="8" r="1"/>
      <circle cx="51" cy="8" r="1"/>
      <circle cx="56" cy="55" r="1"/>
      <circle cx="56" cy="51" r="1"/>
      <circle cx="52" cy="55" r="1"/>
      <circle cx="52" cy="51" r="1"/>
      <circle cx="5" cy="56" r="1"/>
      <circle cx="9" cy="56" r="1"/>
      <circle cx="5" cy="52" r="1"/>
      <circle cx="9" cy="52" r="1"/>
      <circle cx="4" cy="5" r="1"/>
      <circle cx="4" cy="9" r="1"/>
      <circle cx="8" cy="5" r="1"/>
      <circle cx="8" cy="9" r="1"/>
    </g>
    <g transform="matrix(1, 0, 0, 1, 334.135468, 177.206772)">
      <path d="M12,0h-2H0v48v2v10h48h2h10V12v-2V0H12z M48,39.045L39.045,48H30.56L48,30.56V39.045z M48,41.873V48h-6.127L48,41.873z    M27.731,48h-8.485L48,19.246v8.485L27.731,48z M48,16.418L16.418,48H12v-4.067L43.932,12H48V16.418z M12,41.104v-8.485L32.619,12   h8.485L12,41.104z M12,29.791v-8.486L21.305,12h8.486L12,29.791z M12,18.477V12h6.477L12,18.477z M2,2h8v10v8.477v14.143v8.485V48   H2V2z M48,58H2v-8h8h2h5.246h8.485h14.142H48V58z M58,58h-8V48v-8.127V25.731v-8.485V12h8V58z M50,10h-2h-4.896h-8.485H20.477H12V2   h46v8H50z"/>
      <circle cx="55" cy="4" r="1"/>
      <circle cx="51" cy="4" r="1"/>
      <circle cx="55" cy="8" r="1"/>
      <circle cx="51" cy="8" r="1"/>
      <circle cx="56" cy="55" r="1"/>
      <circle cx="56" cy="51" r="1"/>
      <circle cx="52" cy="55" r="1"/>
      <circle cx="52" cy="51" r="1"/>
      <circle cx="5" cy="56" r="1"/>
      <circle cx="9" cy="56" r="1"/>
      <circle cx="5" cy="52" r="1"/>
      <circle cx="9" cy="52" r="1"/>
      <circle cx="4" cy="5" r="1"/>
      <circle cx="4" cy="9" r="1"/>
      <circle cx="8" cy="5" r="1"/>
      <circle cx="8" cy="9" r="1"/>
    </g>
    <g transform="matrix(1, 0, 0, 1, 399.135468, 177.206772)">
      <path d="M12,0h-2H0v48v2v10h48h2h10V12v-2V0H12z M48,39.045L39.045,48H30.56L48,30.56V39.045z M48,41.873V48h-6.127L48,41.873z    M27.731,48h-8.485L48,19.246v8.485L27.731,48z M48,16.418L16.418,48H12v-4.067L43.932,12H48V16.418z M12,41.104v-8.485L32.619,12   h8.485L12,41.104z M12,29.791v-8.486L21.305,12h8.486L12,29.791z M12,18.477V12h6.477L12,18.477z M2,2h8v10v8.477v14.143v8.485V48   H2V2z M48,58H2v-8h8h2h5.246h8.485h14.142H48V58z M58,58h-8V48v-8.127V25.731v-8.485V12h8V58z M50,10h-2h-4.896h-8.485H20.477H12V2   h46v8H50z"/>
      <circle cx="55" cy="4" r="1"/>
      <circle cx="51" cy="4" r="1"/>
      <circle cx="55" cy="8" r="1"/>
      <circle cx="51" cy="8" r="1"/>
      <circle cx="56" cy="55" r="1"/>
      <circle cx="56" cy="51" r="1"/>
      <circle cx="52" cy="55" r="1"/>
      <circle cx="52" cy="51" r="1"/>
      <circle cx="5" cy="56" r="1"/>
      <circle cx="9" cy="56" r="1"/>
      <circle cx="5" cy="52" r="1"/>
      <circle cx="9" cy="52" r="1"/>
      <circle cx="4" cy="5" r="1"/>
      <circle cx="4" cy="9" r="1"/>
      <circle cx="8" cy="5" r="1"/>
      <circle cx="8" cy="9" r="1"/>
    </g>
  </g>
  <g transform="matrix(1, 0, 0, 1, 208.210388, 68.851273)"/>
  <g transform="matrix(1, 0, 0, 1, 208.210388, 68.851273)"/>
  <g transform="matrix(1, 0, 0, 1, 208.210388, 68.851273)"/>
  <g transform="matrix(1, 0, 0, 1, 208.210388, 68.851273)"/>
  <g transform="matrix(1, 0, 0, 1, 208.210388, 68.851273)"/>
  <g transform="matrix(1, 0, 0, 1, 208.210388, 68.851273)"/>
  <g transform="matrix(1, 0, 0, 1, 208.210388, 68.851273)"/>
  <g transform="matrix(1, 0, 0, 1, 208.210388, 68.851273)"/>
  <g transform="matrix(1, 0, 0, 1, 208.210388, 68.851273)"/>
  <g transform="matrix(1, 0, 0, 1, 208.210388, 68.851273)"/>
  <g transform="matrix(1, 0, 0, 1, 208.210388, 68.851273)"/>
  <g transform="matrix(1, 0, 0, 1, 208.210388, 68.851273)"/>
  <g transform="matrix(1, 0, 0, 1, 208.210388, 68.851273)"/>
  <g transform="matrix(1, 0, 0, 1, 208.210388, 68.851273)"/>
  <g transform="matrix(1, 0, 0, 1, 208.210388, 68.851273)"/>
</svg>